<svg width="30" height="28" viewBox="0 0 30 28" fill="none" xmlns="http://www.w3.org/2000/svg">
<path d="M28.9568 1.94445C28.648 1.67253 28.2441 1.53456 27.8339 1.5608C27.4237 1.58705 27.0406 1.77538 26.7688 2.08445L23.8669 5.42889L22.8892 4.32445C22.6156 4.01503 22.2305 3.82727 21.8187 3.80247C21.4069 3.77767 21.0021 3.91787 20.6934 4.19222C20.3848 4.46658 20.1974 4.85261 20.1727 5.2654C20.148 5.67818 20.2878 6.08392 20.5615 6.39334L22.7185 8.82C22.8654 8.9831 23.045 9.11317 23.2456 9.20165C23.4462 9.29013 23.6632 9.33501 23.8824 9.33333C24.1001 9.33086 24.3149 9.2825 24.5127 9.19138C24.7106 9.10026 24.8871 8.96842 25.0307 8.80445L29.081 4.13778C29.3541 3.83018 29.4945 3.42655 29.4712 3.01539C29.4479 2.60423 29.2629 2.21911 28.9568 1.94445ZM10.8627 12.4444C12.0904 12.4444 13.2905 12.0795 14.3113 11.3958C15.332 10.7121 16.1276 9.74033 16.5974 8.60337C17.0673 7.4664 17.1902 6.21532 16.9507 5.00833C16.7112 3.80134 16.12 2.69264 15.2519 1.82245C14.3838 0.952255 13.2778 0.359647 12.0737 0.119561C10.8696 -0.120525 9.62151 0.00269597 8.48728 0.473641C7.35305 0.944586 6.38361 1.7421 5.70155 2.76534C5.01949 3.78858 4.65544 4.99159 4.65544 6.22222C4.65544 7.87246 5.30942 9.45511 6.4735 10.622C7.63759 11.7889 9.21643 12.4444 10.8627 12.4444ZM20.1736 28C20.5851 28 20.9798 27.8361 21.2709 27.5444C21.5619 27.2527 21.7254 26.857 21.7254 26.4444C21.7254 23.5565 20.5809 20.7869 18.5438 18.7448C16.5066 16.7028 13.7437 15.5556 10.8627 15.5556C7.98173 15.5556 5.21876 16.7028 3.18161 18.7448C1.14446 20.7869 4.29297e-08 23.5565 0 26.4444C0 26.857 0.163494 27.2527 0.454516 27.5444C0.745537 27.8361 1.14025 28 1.55181 28" fill="white"/>
</svg>
