<svg width="35" height="28" viewBox="0 0 35 28" fill="none" xmlns="http://www.w3.org/2000/svg">
<path d="M32.6667 3.5H29.1667V2.33333C29.1667 1.71449 28.9208 1.121 28.4832 0.683417C28.0457 0.245833 27.4522 0 26.8333 0H8.16667C7.54783 0 6.95434 0.245833 6.51675 0.683417C6.07917 1.121 5.83333 1.71449 5.83333 2.33333V3.5H2.33333C1.71449 3.5 1.121 3.74583 0.683417 4.18342C0.245833 4.621 0 5.21449 0 5.83333V8.16667C0 9.71376 0.614582 11.1975 1.70854 12.2915C2.25022 12.8331 2.89328 13.2628 3.60101 13.556C4.30875 13.8491 5.06729 14 5.83333 14H6.36562C7.05286 16.1779 8.3632 18.1067 10.1347 19.548C11.9062 20.9893 14.0612 21.8799 16.3333 22.1098V25.6667H12.8333C12.5239 25.6667 12.2272 25.7896 12.0084 26.0084C11.7896 26.2272 11.6667 26.5239 11.6667 26.8333C11.6667 27.1428 11.7896 27.4395 12.0084 27.6583C12.2272 27.8771 12.5239 28 12.8333 28H22.1667C22.4761 28 22.7728 27.8771 22.9916 27.6583C23.2104 27.4395 23.3333 27.1428 23.3333 26.8333C23.3333 26.5239 23.2104 26.2272 22.9916 26.0084C22.7728 25.7896 22.4761 25.6667 22.1667 25.6667H18.6667V22.1054C23.3246 21.6344 27.1892 18.3662 28.595 14H29.1667C30.7138 14 32.1975 13.3854 33.2915 12.2915C34.3854 11.1975 35 9.71376 35 8.16667V5.83333C35 5.21449 34.7542 4.621 34.3166 4.18342C33.879 3.74583 33.2855 3.5 32.6667 3.5ZM5.83333 11.6667C4.90508 11.6667 4.01484 11.2979 3.35846 10.6415C2.70208 9.98516 2.33333 9.09492 2.33333 8.16667V5.83333H5.83333V10.5C5.83333 10.8889 5.85229 11.2778 5.89021 11.6667H5.83333ZM26.8333 10.3687C26.8333 15.5487 22.6785 19.7954 17.5715 19.8333H17.5C15.0246 19.8333 12.6507 18.85 10.9003 17.0997C9.15 15.3493 8.16667 12.9754 8.16667 10.5V2.33333H26.8333V10.3687ZM32.6667 8.16667C32.6667 9.09492 32.2979 9.98516 31.6415 10.6415C30.9852 11.2979 30.0949 11.6667 29.1667 11.6667H29.0937C29.1416 11.2357 29.166 10.8024 29.1667 10.3687V5.83333H32.6667V8.16667Z" fill="white"/>
</svg>
