<svg width="30" height="30" viewBox="0 0 30 30" fill="none" xmlns="http://www.w3.org/2000/svg">
<path d="M15 29C18.713 29 22.274 27.525 24.8995 24.8995C27.525 22.274 29 18.713 29 15C29 11.287 27.525 7.72601 24.8995 5.10051C22.274 2.475 18.713 1 15 1C11.287 1 7.72601 2.475 5.10051 5.10051C2.475 7.72601 1 11.287 1 15C1 18.713 2.475 22.274 5.10051 24.8995C7.72601 27.525 11.287 29 15 29Z" stroke="white" stroke-width="2" stroke-linecap="round" stroke-linejoin="round"/>
<path d="M7.89258 17.1542C8.9695 21.0311 13.2772 23.4003 17.1541 22.3234C19.5233 21.4619 21.4618 19.5234 22.108 17.1542M10.2618 11.6619C10.119 11.6619 9.98204 11.6052 9.88106 11.5042C9.78008 11.4032 9.72335 11.2662 9.72335 11.1234C9.72335 10.9806 9.78008 10.8437 9.88106 10.7427C9.98204 10.6417 10.119 10.585 10.2618 10.585C10.4046 10.585 10.5416 10.6417 10.6426 10.7427C10.7435 10.8437 10.8003 10.9806 10.8003 11.1234C10.8003 11.2662 10.7435 11.4032 10.6426 11.5042C10.5416 11.6052 10.4046 11.6619 10.2618 11.6619ZM19.7387 11.6619C19.5959 11.6619 19.459 11.6052 19.358 11.5042C19.257 11.4032 19.2003 11.2662 19.2003 11.1234C19.2003 10.9806 19.257 10.8437 19.358 10.7427C19.459 10.6417 19.5959 10.585 19.7387 10.585C19.8815 10.585 20.0185 10.6417 20.1195 10.7427C20.2205 10.8437 20.2772 10.9806 20.2772 11.1234C20.2772 11.2662 20.2205 11.4032 20.1195 11.5042C20.0185 11.6052 19.8815 11.6619 19.7387 11.6619Z" stroke="white" stroke-width="2" stroke-linecap="round" stroke-linejoin="round"/>
</svg>
