<svg width="28" height="29" viewBox="0 0 28 29" fill="none" xmlns="http://www.w3.org/2000/svg">
<path d="M8.12 0.964355H19.88C24.36 0.964355 28 4.54005 28 8.94091V20.4932C28 22.6087 27.1445 24.6376 25.6217 26.1335C24.0989 27.6293 22.0336 28.4697 19.88 28.4697H8.12C3.64 28.4697 0 24.894 0 20.4932V8.94091C0 6.8254 0.855498 4.79653 2.37829 3.30064C3.90109 1.80474 5.96644 0.964355 8.12 0.964355ZM7.84 3.71489C6.50331 3.71489 5.22137 4.23651 4.27618 5.165C3.331 6.09348 2.8 7.35278 2.8 8.66586V20.7682C2.8 23.505 5.054 25.7192 7.84 25.7192H20.16C21.4967 25.7192 22.7786 25.1976 23.7238 24.2691C24.669 23.3406 25.2 22.0813 25.2 20.7682V8.66586C25.2 5.92908 22.946 3.71489 20.16 3.71489H7.84ZM21.35 5.7778C21.8141 5.7778 22.2592 5.95891 22.5874 6.2813C22.9156 6.6037 23.1 7.04095 23.1 7.49688C23.1 7.95281 22.9156 8.39007 22.5874 8.71246C22.2592 9.03485 21.8141 9.21597 21.35 9.21597C20.8859 9.21597 20.4408 9.03485 20.1126 8.71246C19.7844 8.39007 19.6 7.95281 19.6 7.49688C19.6 7.04095 19.7844 6.6037 20.1126 6.2813C20.4408 5.95891 20.8859 5.7778 21.35 5.7778ZM14 7.8407C15.8565 7.8407 17.637 8.56517 18.9497 9.85473C20.2625 11.1443 21 12.8933 21 14.717C21 16.5408 20.2625 18.2898 18.9497 19.5794C17.637 20.8689 15.8565 21.5934 14 21.5934C12.1435 21.5934 10.363 20.8689 9.05025 19.5794C7.7375 18.2898 7 16.5408 7 14.717C7 12.8933 7.7375 11.1443 9.05025 9.85473C10.363 8.56517 12.1435 7.8407 14 7.8407ZM14 10.5912C12.8861 10.5912 11.8178 11.0259 11.0302 11.7997C10.2425 12.5734 9.8 13.6228 9.8 14.717C9.8 15.8113 10.2425 16.8607 11.0302 17.6344C11.8178 18.4082 12.8861 18.8428 14 18.8428C15.1139 18.8428 16.1822 18.4082 16.9698 17.6344C17.7575 16.8607 18.2 15.8113 18.2 14.717C18.2 13.6228 17.7575 12.5734 16.9698 11.7997C16.1822 11.0259 15.1139 10.5912 14 10.5912Z" fill="white"/>
</svg>
