<svg width="250" height="48" viewBox="0 0 250 48" fill="none" xmlns="http://www.w3.org/2000/svg">
<path fill-rule="evenodd" clip-rule="evenodd" d="M14.4742 2.99502C14.6115 2.48253 14.8486 2.00208 15.1719 1.58112C15.4952 1.16016 15.8983 0.806916 16.3582 0.54157C16.8182 0.276224 17.326 0.103969 17.8526 0.0346407C18.3792 -0.0346876 18.9143 0.000268688 19.4274 0.137514L41.5647 6.06259C42.0779 6.19979 42.559 6.43665 42.9806 6.75964C43.4022 7.08263 43.7559 7.48541 44.0216 7.94498C44.2872 8.40454 44.4597 8.91189 44.529 9.43803C44.5983 9.96418 44.5631 10.4988 44.4255 11.0114L44.2503 11.6618L47.2351 12.4603C47.5803 12.5528 47.8745 12.7783 48.0533 13.0874C48.232 13.3965 48.2806 13.7638 48.1883 14.1086L46.9669 18.6615C46.921 18.8323 46.8419 18.9924 46.7341 19.1327C46.6263 19.2731 46.4919 19.3908 46.3385 19.4792C46.1852 19.5676 46.0159 19.625 45.8403 19.648C45.6647 19.6711 45.4864 19.6593 45.3153 19.6135L42.3318 18.815L41.7709 20.9089C41.8249 21.0059 41.8734 21.1082 41.9165 21.2133L43.0733 24.095C43.2908 24.6359 43.3268 25.2327 43.1758 25.7958L41.5175 31.9767C41.4258 32.3184 41.2676 32.6387 41.052 32.9193C40.8364 33.1999 40.5676 33.4353 40.2608 33.6122C39.9541 33.789 39.6155 33.9037 39.2644 33.9498C38.9132 33.9959 38.5565 33.9725 38.2144 33.8808L30.4718 31.807L32.4253 24.5286C32.4712 24.3578 32.4829 24.1796 32.4598 24.0043C32.4368 23.8289 32.3793 23.6598 32.2908 23.5066C32.2023 23.3534 32.0844 23.2192 31.944 23.1115C31.8035 23.0038 31.6432 22.9248 31.4721 22.879L19.751 19.7414C19.4056 19.6493 19.0377 19.698 18.7282 19.8768C18.4188 20.0556 18.1931 20.3499 18.1008 20.6948L16.1459 27.9746L7.7413 25.7258C7.39922 25.6342 7.07856 25.4762 6.79761 25.2609C6.51667 25.0455 6.28095 24.777 6.10393 24.4706C5.9269 24.1642 5.81203 23.826 5.76588 23.4753C5.71973 23.1246 5.74321 22.7682 5.83496 22.4266L7.44874 16.4072C7.62626 15.7471 8.04846 15.179 8.62976 14.8182L11.7198 12.898L11.8344 12.8306L12.3804 10.7986L9.26071 9.96371C8.91558 9.87123 8.62133 9.64569 8.4426 9.33663C8.26387 9.02757 8.21529 8.66028 8.30754 8.31546L9.529 3.76258C9.57483 3.59175 9.65392 3.4316 9.76172 3.29129C9.86953 3.15099 10.004 3.03327 10.1573 2.94486C10.3107 2.85645 10.48 2.79908 10.6555 2.77603C10.8311 2.75299 11.0095 2.76471 11.1805 2.81053L14.2989 3.64543L14.4742 2.99502ZM18.729 2.73916C18.3838 2.64702 18.0161 2.69554 17.7067 2.87406C17.3973 3.05258 17.1714 3.34649 17.0789 3.69121L14.9851 11.4962L39.7271 18.1188L41.8208 10.3138C41.8667 10.143 41.8784 9.96482 41.8554 9.78947C41.8323 9.61411 41.7748 9.44501 41.6863 9.29182C41.5978 9.13864 41.48 9.00437 41.3395 8.89669C41.199 8.78901 41.0387 8.71002 40.8676 8.66424L18.729 2.73916ZM12.495 23.3773C12.7516 23.446 13.0191 23.4635 13.2825 23.429C13.5458 23.3944 13.7997 23.3083 14.0298 23.1757C14.2598 23.0431 14.4614 22.8665 14.6232 22.6561C14.7849 22.4456 14.9035 22.2054 14.9723 21.9492C15.0411 21.693 15.0587 21.4257 15.024 21.1627C14.9894 20.8996 14.9033 20.646 14.7705 20.4162C14.6377 20.1865 14.461 19.9851 14.2503 19.8235C14.0396 19.662 13.7991 19.5435 13.5426 19.4748C13.0244 19.3361 12.4724 19.4086 12.0078 19.6764C11.5432 19.9442 11.2042 20.3854 11.0653 20.9029C10.9263 21.4204 10.9989 21.9718 11.2671 22.4358C11.5352 22.8999 11.9769 23.2385 12.495 23.3773ZM38.4126 28.2224C38.2737 28.7399 37.9346 29.1811 37.4701 29.4489C37.0055 29.7167 36.4534 29.7892 35.9353 29.6505C35.4172 29.5117 34.9755 29.1731 34.7074 28.709C34.4392 28.245 34.3666 27.6936 34.5055 27.1761C34.6445 26.6586 34.9835 26.2174 35.4481 25.9496C35.9127 25.6817 36.4647 25.6092 36.9828 25.748C37.5009 25.8867 37.9427 26.2254 38.2108 26.6894C38.4789 27.1534 38.5515 27.7049 38.4126 28.2224Z" fill="white"/>
<path d="M12.1337 43.9602C12.1337 42.5314 11.4947 41.1619 10.3568 40.1506C9.21892 39.1407 7.67524 38.5737 6.06685 38.5737C4.45846 38.5737 2.91478 39.1407 1.77691 40.1506C0.639042 41.1606 0 42.5328 0 43.9602V46.6534C0 47.0105 0.142041 47.353 0.394876 47.6056C0.64771 47.8581 0.990627 48 1.34819 48H38.4234C38.7809 48 39.1239 47.8581 39.3767 47.6056C39.6295 47.353 39.7716 47.0105 39.7716 46.6534C39.7716 46.2962 39.6295 45.9537 39.3767 45.7012C39.1239 45.4487 38.7809 45.3068 38.4234 45.3068H25.6156C25.6156 44.5925 25.3315 43.9075 24.8258 43.4024C24.3202 42.8973 23.6343 42.6136 22.9192 42.6136C22.2041 42.6136 21.5183 42.8973 21.0126 43.4024C20.5069 43.9075 20.2228 44.5925 20.2228 45.3068C20.2228 44.2354 19.7967 43.2078 19.0382 42.4502C18.2797 41.6926 17.251 41.267 16.1783 41.267C15.1056 41.267 14.0768 41.6926 13.3183 42.4502C12.5598 43.2078 12.1337 44.2354 12.1337 45.3068V43.9602ZM15.6997 30.42L7.88556 28.3287L6.86093 32.1477C6.81506 32.3186 6.80332 32.4967 6.8264 32.6721C6.84947 32.8475 6.9069 33.0166 6.99542 33.1697C7.08393 33.3229 7.20179 33.4572 7.34226 33.5649C7.48273 33.6726 7.64307 33.7515 7.8141 33.7973L13.0235 35.1911C13.1945 35.2369 13.3729 35.2486 13.5485 35.2256C13.7241 35.2025 13.8933 35.1451 14.0467 35.0567C14.2001 34.9683 14.3345 34.8506 14.4423 34.7103C14.5501 34.57 14.6292 34.4099 14.675 34.239L15.6997 30.42ZM30.2601 34.3804L38.0742 36.4717L37.0658 40.2314C37.0199 40.4023 36.9408 40.5624 36.833 40.7027C36.7252 40.843 36.5908 40.9607 36.4374 41.0491C36.2841 41.1376 36.1148 41.1949 35.9392 41.218C35.7636 41.241 35.5853 41.2293 35.4142 41.1835L30.2048 39.7897C30.0338 39.7439 29.8735 39.665 29.733 39.5573C29.5925 39.4496 29.4747 39.3153 29.3861 39.1621C29.2976 39.009 29.2402 38.8399 29.2171 38.6645C29.194 38.4891 29.2058 38.311 29.2517 38.1401L30.2601 34.3804ZM18.9596 27.8951L20.3563 22.6918L23.7484 23.6008L22.2276 28.7704L18.9596 27.8951ZM24.8336 29.4666L26.3531 24.297L29.4714 25.1319L28.076 30.3352L24.8336 29.4666Z" fill="white"/>
<path d="M87.1604 35.0726L82.4364 26.5081H81.1097V35.0726H75.5768V12.3849H84.8631C86.6535 12.3849 88.1742 12.6973 89.4254 13.3222C90.6981 13.947 91.6472 14.8088 92.2727 15.9076C92.8983 16.9849 93.2111 18.1915 93.2111 19.5273C93.2111 21.0355 92.7797 22.3821 91.9168 23.5671C91.0756 24.7522 89.8244 25.5924 88.1635 26.088L93.4052 35.0726H87.1604ZM81.1097 22.5976H84.5395C85.5534 22.5976 86.3084 22.3498 86.8045 21.8543C87.3222 21.3587 87.581 20.6585 87.581 19.7536C87.581 18.8917 87.3222 18.213 86.8045 17.7175C86.3084 17.2219 85.5534 16.9742 84.5395 16.9742H81.1097V22.5976Z" fill="white"/>
<path d="M94.29 26.0234C94.29 24.1704 94.6351 22.5437 95.3254 21.1432C96.0372 19.7428 96.9971 18.6655 98.2051 17.9114C99.4131 17.1573 100.761 16.7802 102.25 16.7802C103.522 16.7802 104.633 17.0388 105.582 17.5559C106.553 18.073 107.297 18.7517 107.815 19.592V17.0388H113.348V35.0726H107.815V32.5194C107.276 33.3597 106.521 34.0384 105.55 34.5555C104.601 35.0726 103.49 35.3311 102.217 35.3311C100.75 35.3311 99.4131 34.9541 98.2051 34.2C96.9971 33.4243 96.0372 32.3363 95.3254 30.9358C94.6351 29.5138 94.29 27.8763 94.29 26.0234ZM107.815 26.0557C107.815 24.6767 107.427 23.5887 106.65 22.7915C105.895 21.9943 104.968 21.5957 103.868 21.5957C102.767 21.5957 101.829 21.9943 101.052 22.7915C100.297 23.5671 99.92 24.6444 99.92 26.0234C99.92 27.4023 100.297 28.5011 101.052 29.3199C101.829 30.117 102.767 30.5156 103.868 30.5156C104.968 30.5156 105.895 30.117 106.65 29.3199C107.427 28.5227 107.815 27.4346 107.815 26.0557Z" fill="white"/>
<path d="M125.116 21.628H122.14V35.0726H116.607V21.628H114.601V17.0388H116.607V16.5217C116.607 14.3025 117.243 12.6219 118.516 11.48C119.788 10.3165 121.654 9.73479 124.113 9.73479C124.523 9.73479 124.825 9.74556 125.019 9.7671V14.4533C123.962 14.3887 123.218 14.5395 122.787 14.9058C122.355 15.272 122.14 15.9292 122.14 16.8772V17.0388H125.116V21.628Z" fill="white"/>
<path d="M136.485 30.3864V35.0726H133.67C131.664 35.0726 130.1 34.5878 128.978 33.6182C127.857 32.6271 127.296 31.022 127.296 28.8028V21.628H125.095V17.0388H127.296V12.6435H132.829V17.0388H136.453V21.628H132.829V28.8674C132.829 29.406 132.958 29.7939 133.217 30.0309C133.476 30.2679 133.907 30.3864 134.511 30.3864H136.485Z" fill="white"/>
<path d="M141.055 15.1643C140.085 15.1643 139.286 14.8842 138.661 14.324C138.057 13.7423 137.755 13.0313 137.755 12.191C137.755 11.3292 138.057 10.6182 138.661 10.058C139.286 9.47624 140.085 9.18537 141.055 9.18537C142.004 9.18537 142.781 9.47624 143.385 10.058C144.01 10.6182 144.323 11.3292 144.323 12.191C144.323 13.0313 144.01 13.7423 143.385 14.324C142.781 14.8842 142.004 15.1643 141.055 15.1643ZM143.806 17.0388V35.0726H138.273V17.0388H143.806Z" fill="white"/>
<path d="M157.522 16.8449C159.636 16.8449 161.319 17.5343 162.57 18.9133C163.843 20.2706 164.479 22.1451 164.479 24.5367V35.0726H158.978V25.28C158.978 24.0735 158.665 23.1362 158.04 22.4683C157.414 21.8004 156.573 21.4664 155.516 21.4664C154.459 21.4664 153.618 21.8004 152.992 22.4683C152.367 23.1362 152.054 24.0735 152.054 25.28V35.0726H146.521V17.0388H152.054V19.4304C152.615 18.6332 153.37 18.0083 154.319 17.5559C155.268 17.0819 156.336 16.8449 157.522 16.8449Z" fill="white"/>
<path d="M173.889 16.7802C175.162 16.7802 176.273 17.0388 177.222 17.5559C178.192 18.073 178.937 18.7517 179.454 19.592V17.0388H184.987V35.0402C184.987 36.6993 184.653 38.1967 183.984 39.5325C183.337 40.8899 182.334 41.9672 180.975 42.7644C179.638 43.5616 177.966 43.9602 175.96 43.9602C173.285 43.9602 171.117 43.3246 169.456 42.0534C167.795 40.8037 166.846 39.1016 166.609 36.947H172.077C172.25 37.6365 172.66 38.1751 173.307 38.563C173.954 38.9723 174.752 39.177 175.701 39.177C176.844 39.177 177.75 38.8431 178.419 38.1751C179.109 37.5288 179.454 36.4838 179.454 35.0402V32.4871C178.915 33.3274 178.171 34.0168 177.222 34.5555C176.273 35.0726 175.162 35.3311 173.889 35.3311C172.401 35.3311 171.052 34.9541 169.845 34.2C168.637 33.4243 167.677 32.3363 166.965 30.9358C166.274 29.5138 165.929 27.8763 165.929 26.0234C165.929 24.1704 166.274 22.5437 166.965 21.1432C167.677 19.7428 168.637 18.6655 169.845 17.9114C171.052 17.1573 172.401 16.7802 173.889 16.7802ZM179.454 26.0557C179.454 24.6767 179.066 23.5887 178.29 22.7915C177.535 21.9943 176.607 21.5957 175.507 21.5957C174.407 21.5957 173.468 21.9943 172.692 22.7915C171.937 23.5671 171.559 24.6444 171.559 26.0234C171.559 27.4023 171.937 28.5011 172.692 29.3199C173.468 30.117 174.407 30.5156 175.507 30.5156C176.607 30.5156 177.535 30.117 178.29 29.3199C179.066 28.5227 179.454 27.4346 179.454 26.0557Z" fill="white"/>
<path d="M186.758 23.6964C186.758 21.4557 187.243 19.4627 188.214 17.7175C189.184 15.9507 190.533 14.5826 192.258 13.613C194.005 12.6219 195.979 12.1264 198.179 12.1264C200.876 12.1264 203.184 12.8374 205.104 14.2594C207.024 15.6814 208.307 17.6205 208.954 20.0767H202.871C202.418 19.1287 201.771 18.4069 200.93 17.9114C200.11 17.4158 199.172 17.1681 198.115 17.1681C196.411 17.1681 195.03 17.7606 193.973 18.9456C192.916 20.1306 192.388 21.7142 192.388 23.6964C192.388 25.6786 192.916 27.2622 193.973 28.4473C195.03 29.6323 196.411 30.2248 198.115 30.2248C199.172 30.2248 200.11 29.977 200.93 29.4814C201.771 28.9859 202.418 28.2641 202.871 27.3161H208.954C208.307 29.7723 207.024 31.7114 205.104 33.1334C203.184 34.5339 200.876 35.2342 198.179 35.2342C195.979 35.2342 194.005 34.7494 192.258 33.7798C190.533 32.7887 189.184 31.4206 188.214 29.6754C187.243 27.9302 186.758 25.9372 186.758 23.6964Z" fill="white"/>
<path d="M228.877 17.0388V35.0726H223.344V32.6163C222.783 33.4135 222.017 34.0599 221.046 34.5555C220.097 35.0295 219.04 35.2665 217.876 35.2665C216.495 35.2665 215.276 34.9648 214.219 34.3616C213.162 33.7367 212.343 32.8426 211.76 31.6791C211.178 30.5156 210.886 29.1475 210.886 27.5747V17.0388H216.387V26.8313C216.387 28.0379 216.7 28.9751 217.325 29.643C217.951 30.311 218.792 30.6449 219.849 30.6449C220.928 30.6449 221.78 30.311 222.405 29.643C223.031 28.9751 223.344 28.0379 223.344 26.8313V17.0388H228.877Z" fill="white"/>
<path d="M250 17.0388L238.675 43.637H232.722L236.863 34.4585L229.518 17.0388H235.698L239.872 28.318L244.014 17.0388H250Z" fill="white"/>
</svg>
