<svg width="160" height="40" viewBox="0 0 160 40" fill="none" xmlns="http://www.w3.org/2000/svg">
<path fill-rule="evenodd" clip-rule="evenodd" d="M13.9467 7.14933C14.0316 6.83218 14.1782 6.53487 14.378 6.27436C14.5778 6.01385 14.827 5.79525 15.1113 5.63104C15.3956 5.46684 15.7095 5.36024 16.035 5.31734C16.3605 5.27443 16.6912 5.29606 17.0084 5.381L30.6917 9.04766C31.009 9.13257 31.3064 9.27915 31.5669 9.47903C31.8275 9.6789 32.0461 9.92816 32.2104 10.2126C32.3746 10.497 32.4811 10.8109 32.524 11.1365C32.5668 11.4621 32.5451 11.793 32.46 12.1102L32.3517 12.5127L34.1967 13.0068C34.41 13.0641 34.5919 13.2036 34.7024 13.3949C34.8129 13.5862 34.8429 13.8134 34.7859 14.0268L34.0309 16.8443C34.0025 16.9501 33.9537 17.0492 33.887 17.136C33.8204 17.2228 33.7373 17.2957 33.6425 17.3504C33.5477 17.4051 33.4431 17.4406 33.3345 17.4548C33.226 17.4691 33.1158 17.4619 33.01 17.4335L31.1659 16.9393L30.8192 18.2352C30.8525 18.2952 30.8825 18.3585 30.9092 18.4235L31.6242 20.2068C31.7587 20.5416 31.7809 20.9109 31.6875 21.2593L30.6625 25.0843C30.6059 25.2958 30.5081 25.494 30.3748 25.6676C30.2416 25.8413 30.0754 25.987 29.8858 26.0964C29.6962 26.2058 29.4869 26.2768 29.2699 26.3054C29.0528 26.3339 28.8323 26.3194 28.6209 26.2627L23.835 24.9793L25.0425 20.4752C25.0709 20.3695 25.0782 20.2592 25.0639 20.1507C25.0496 20.0422 25.0141 19.9375 24.9594 19.8427C24.9047 19.7479 24.8319 19.6648 24.745 19.5982C24.6582 19.5315 24.5591 19.4827 24.4534 19.4543L17.2084 17.5127C16.9949 17.4557 16.7675 17.4858 16.5762 17.5965C16.3849 17.7071 16.2454 17.8892 16.1884 18.1027L14.98 22.6077L9.78505 21.216C9.5736 21.1593 9.3754 21.0616 9.20174 20.9283C9.02809 20.795 8.88239 20.6288 8.77297 20.4392C8.66354 20.2497 8.59254 20.0404 8.56402 19.8233C8.53549 19.6063 8.55 19.3858 8.60671 19.1743L9.60421 15.4493C9.71394 15.0408 9.97491 14.6893 10.3342 14.466L12.2442 13.2777L12.315 13.236L12.6525 11.9785L10.7242 11.4618C10.5109 11.4046 10.329 11.265 10.2185 11.0738C10.1081 10.8825 10.078 10.6552 10.135 10.4418L10.89 7.62433C10.9184 7.51861 10.9673 7.41951 11.0339 7.33268C11.1005 7.24585 11.1836 7.173 11.2784 7.11829C11.3732 7.06358 11.4779 7.02808 11.5864 7.01382C11.6949 6.99955 11.8052 7.00681 11.9109 7.03516L13.8384 7.55183L13.9467 7.14933ZM16.5767 6.991C16.3633 6.93398 16.136 6.96401 15.9448 7.07448C15.7535 7.18495 15.6139 7.36684 15.5567 7.58016L14.2625 12.4102L29.5559 16.5085L30.85 11.6785C30.8784 11.5728 30.8857 11.4625 30.8714 11.354C30.8571 11.2455 30.8216 11.1408 30.7669 11.046C30.7122 10.9512 30.6394 10.8682 30.5525 10.8015C30.4657 10.7349 30.3666 10.686 30.2609 10.6577L16.5767 6.991ZM12.7234 19.7627C12.882 19.8052 13.0473 19.816 13.2101 19.7946C13.3729 19.7732 13.5298 19.72 13.672 19.6379C13.8142 19.5559 13.9389 19.4466 14.0388 19.3164C14.1388 19.1861 14.2121 19.0375 14.2546 18.8789C14.2971 18.7203 14.308 18.555 14.2866 18.3922C14.2652 18.2294 14.212 18.0724 14.1299 17.9303C14.0478 17.7881 13.9386 17.6634 13.8083 17.5635C13.6781 17.4635 13.5295 17.3902 13.3709 17.3477C13.0506 17.2618 12.7094 17.3067 12.4222 17.4724C12.1351 17.6381 11.9255 17.9112 11.8396 18.2314C11.7538 18.5517 11.7986 18.8929 11.9644 19.1801C12.1301 19.4672 12.4031 19.6768 12.7234 19.7627ZM28.7434 22.761C28.6575 23.0812 28.448 23.3543 28.1608 23.52C27.8736 23.6857 27.5324 23.7306 27.2121 23.6448C26.8919 23.5589 26.6189 23.3493 26.4531 23.0622C26.2874 22.775 26.2425 22.4337 26.3284 22.1135C26.4142 21.7932 26.6238 21.5202 26.911 21.3545C27.1981 21.1888 27.5394 21.1439 27.8596 21.2297C28.1799 21.3156 28.4529 21.5252 28.6186 21.8123C28.7844 22.0995 28.8292 22.4408 28.7434 22.761Z" fill="#60A5FA"/>
<path d="M12.5 32.5005C12.5 31.6164 12.105 30.7689 11.4017 30.143C10.6983 29.518 9.74417 29.1672 8.75 29.1672C7.75583 29.1672 6.80167 29.518 6.09833 30.143C5.395 30.768 5 31.6172 5 32.5005V34.1672C5 34.3882 5.0878 34.6002 5.24408 34.7565C5.40036 34.9127 5.61232 35.0005 5.83333 35.0005H28.75C28.971 35.0005 29.183 34.9127 29.3393 34.7565C29.4955 34.6002 29.5833 34.3882 29.5833 34.1672C29.5833 33.9462 29.4955 33.7342 29.3393 33.5779C29.183 33.4217 28.971 33.3339 28.75 33.3339H20.8333C20.8333 32.8918 20.6577 32.4679 20.3452 32.1554C20.0326 31.8428 19.6087 31.6672 19.1667 31.6672C18.7246 31.6672 18.3007 31.8428 17.9882 32.1554C17.6756 32.4679 17.5 32.8918 17.5 33.3339C17.5 32.6708 17.2366 32.0349 16.7678 31.5661C16.2989 31.0973 15.663 30.8339 15 30.8339C14.337 30.8339 13.7011 31.0973 13.2322 31.5661C12.7634 32.0349 12.5 32.6708 12.5 33.3339V32.5005ZM14.7042 24.1214L9.87417 22.8272L9.24083 25.1905C9.21248 25.2962 9.20522 25.4065 9.21949 25.515C9.23375 25.6236 9.26925 25.7282 9.32396 25.823C9.37867 25.9178 9.45152 26.0009 9.53835 26.0675C9.62518 26.1342 9.72428 26.183 9.83 26.2114L13.05 27.0739C13.1557 27.1022 13.266 27.1095 13.3745 27.0952C13.483 27.081 13.5877 27.0455 13.6825 26.9907C13.7773 26.936 13.8603 26.8632 13.927 26.7764C13.9936 26.6895 14.0425 26.5904 14.0708 26.4847L14.7042 24.1214ZM23.7042 26.5722L28.5342 27.8664L27.9108 30.193C27.8825 30.2988 27.8336 30.3979 27.767 30.4847C27.7003 30.5715 27.6173 30.6444 27.5225 30.6991C27.4277 30.7538 27.323 30.7893 27.2145 30.8036C27.106 30.8178 26.9957 30.8106 26.89 30.7822L23.67 29.9197C23.5643 29.8914 23.4652 29.8425 23.3783 29.7758C23.2915 29.7092 23.2187 29.6261 23.164 29.5313C23.1093 29.4365 23.0738 29.3319 23.0595 29.2234C23.0452 29.1148 23.0525 29.0046 23.0808 28.8989L23.7042 26.5722ZM16.7192 22.5589L17.5825 19.3389L19.6792 19.9014L18.7392 23.1005L16.7192 22.5589ZM20.35 23.5314L21.2892 20.3322L23.2167 20.8489L22.3542 24.0689L20.35 23.5314Z" fill="#60A5FA"/>
<path d="M58.875 27L55.955 21.7H55.135V27H51.715V12.96H57.455C58.5617 12.96 59.5017 13.1533 60.275 13.54C61.0617 13.9267 61.6483 14.46 62.035 15.14C62.4217 15.8067 62.615 16.5533 62.615 17.38C62.615 18.3133 62.3483 19.1467 61.815 19.88C61.295 20.6133 60.5217 21.1333 59.495 21.44L62.735 27H58.875ZM55.135 19.28H57.255C57.8817 19.28 58.3483 19.1267 58.655 18.82C58.975 18.5133 59.135 18.08 59.135 17.52C59.135 16.9867 58.975 16.5667 58.655 16.26C58.3483 15.9533 57.8817 15.8 57.255 15.8H55.135V19.28ZM63.2819 21.4C63.2819 20.2533 63.4952 19.2467 63.9219 18.38C64.3619 17.5133 64.9552 16.8467 65.7019 16.38C66.4485 15.9133 67.2819 15.68 68.2019 15.68C68.9885 15.68 69.6752 15.84 70.2619 16.16C70.8619 16.48 71.3219 16.9 71.6419 17.42V15.84H75.0619V27H71.6419V25.42C71.3085 25.94 70.8419 26.36 70.2419 26.68C69.6552 27 68.9685 27.16 68.1819 27.16C67.2752 27.16 66.4485 26.9267 65.7019 26.46C64.9552 25.98 64.3619 25.3067 63.9219 24.44C63.4952 23.56 63.2819 22.5467 63.2819 21.4ZM71.6419 21.42C71.6419 20.5667 71.4019 19.8933 70.9219 19.4C70.4552 18.9067 69.8819 18.66 69.2019 18.66C68.5219 18.66 67.9419 18.9067 67.4619 19.4C66.9952 19.88 66.7619 20.5467 66.7619 21.4C66.7619 22.2533 66.9952 22.9333 67.4619 23.44C67.9419 23.9333 68.5219 24.18 69.2019 24.18C69.8819 24.18 70.4552 23.9333 70.9219 23.44C71.4019 22.9467 71.6419 22.2733 71.6419 21.42ZM82.3361 18.68H80.4961V27H77.0761V18.68H75.8361V15.84H77.0761V15.52C77.0761 14.1467 77.4694 13.1067 78.2561 12.4C79.0428 11.68 80.1961 11.32 81.7161 11.32C81.9694 11.32 82.1561 11.3267 82.2761 11.34V14.24C81.6228 14.2 81.1628 14.2933 80.8961 14.52C80.6294 14.7467 80.4961 15.1533 80.4961 15.74V15.84H82.3361V18.68ZM89.3631 24.1V27H87.6231C86.3831 27 85.4165 26.7 84.7231 26.1C84.0298 25.4867 83.6831 24.4933 83.6831 23.12V18.68H82.3231V15.84H83.6831V13.12H87.1031V15.84H89.3431V18.68H87.1031V23.16C87.1031 23.4933 87.1831 23.7333 87.3431 23.88C87.5031 24.0267 87.7698 24.1 88.1431 24.1H89.3631ZM92.1881 14.68C91.5881 14.68 91.0948 14.5067 90.7081 14.16C90.3348 13.8 90.1481 13.36 90.1481 12.84C90.1481 12.3067 90.3348 11.8667 90.7081 11.52C91.0948 11.16 91.5881 10.98 92.1881 10.98C92.7748 10.98 93.2548 11.16 93.6281 11.52C94.0148 11.8667 94.2081 12.3067 94.2081 12.84C94.2081 13.36 94.0148 13.8 93.6281 14.16C93.2548 14.5067 92.7748 14.68 92.1881 14.68ZM93.8881 15.84V27H90.4681V15.84H93.8881ZM102.367 15.72C103.673 15.72 104.713 16.1467 105.487 17C106.273 17.84 106.667 19 106.667 20.48V27H103.267V20.94C103.267 20.1933 103.073 19.6133 102.687 19.2C102.3 18.7867 101.78 18.58 101.127 18.58C100.473 18.58 99.9532 18.7867 99.5666 19.2C99.1799 19.6133 98.9866 20.1933 98.9866 20.94V27H95.5666V15.84H98.9866V17.32C99.3332 16.8267 99.7999 16.44 100.387 16.16C100.973 15.8667 101.633 15.72 102.367 15.72ZM112.483 15.68C113.27 15.68 113.956 15.84 114.543 16.16C115.143 16.48 115.603 16.9 115.923 17.42V15.84H119.343V26.98C119.343 28.0067 119.136 28.9333 118.723 29.76C118.323 30.6 117.703 31.2667 116.863 31.76C116.036 32.2533 115.003 32.5 113.763 32.5C112.11 32.5 110.77 32.1067 109.743 31.32C108.716 30.5467 108.13 29.4933 107.983 28.16H111.363C111.47 28.5867 111.723 28.92 112.123 29.16C112.523 29.4133 113.016 29.54 113.603 29.54C114.31 29.54 114.87 29.3333 115.283 28.92C115.71 28.52 115.923 27.8733 115.923 26.98V25.4C115.59 25.92 115.13 26.3467 114.543 26.68C113.956 27 113.27 27.16 112.483 27.16C111.563 27.16 110.73 26.9267 109.983 26.46C109.236 25.98 108.643 25.3067 108.203 24.44C107.776 23.56 107.563 22.5467 107.563 21.4C107.563 20.2533 107.776 19.2467 108.203 18.38C108.643 17.5133 109.236 16.8467 109.983 16.38C110.73 15.9133 111.563 15.68 112.483 15.68ZM115.923 21.42C115.923 20.5667 115.683 19.8933 115.203 19.4C114.736 18.9067 114.163 18.66 113.483 18.66C112.803 18.66 112.223 18.9067 111.743 19.4C111.276 19.88 111.043 20.5467 111.043 21.4C111.043 22.2533 111.276 22.9333 111.743 23.44C112.223 23.9333 112.803 24.18 113.483 24.18C114.163 24.18 114.736 23.9333 115.203 23.44C115.683 22.9467 115.923 22.2733 115.923 21.42ZM120.437 19.96C120.437 18.5733 120.737 17.34 121.337 16.26C121.937 15.1667 122.771 14.32 123.837 13.72C124.917 13.1067 126.137 12.8 127.497 12.8C129.164 12.8 130.591 13.24 131.777 14.12C132.964 15 133.757 16.2 134.157 17.72H130.397C130.117 17.1333 129.717 16.6867 129.197 16.38C128.691 16.0733 128.111 15.92 127.457 15.92C126.404 15.92 125.551 16.2867 124.897 17.02C124.244 17.7533 123.917 18.7333 123.917 19.96C123.917 21.1867 124.244 22.1667 124.897 22.9C125.551 23.6333 126.404 24 127.457 24C128.111 24 128.691 23.8467 129.197 23.54C129.717 23.2333 130.117 22.7867 130.397 22.2H134.157C133.757 23.72 132.964 24.92 131.777 25.8C130.591 26.6667 129.164 27.1 127.497 27.1C126.137 27.1 124.917 26.8 123.837 26.2C122.771 25.5867 121.937 24.74 121.337 23.66C120.737 22.58 120.437 21.3467 120.437 19.96ZM146.472 15.84V27H143.052V25.48C142.705 25.9733 142.232 26.3733 141.632 26.68C141.045 26.9733 140.392 27.12 139.672 27.12C138.818 27.12 138.065 26.9333 137.412 26.56C136.758 26.1733 136.252 25.62 135.892 24.9C135.532 24.18 135.352 23.3333 135.352 22.36V15.84H138.752V21.9C138.752 22.6467 138.945 23.2267 139.332 23.64C139.718 24.0533 140.238 24.26 140.892 24.26C141.558 24.26 142.085 24.0533 142.472 23.64C142.858 23.2267 143.052 22.6467 143.052 21.9V15.84H146.472ZM159.528 15.84L152.528 32.3H148.848L151.408 26.62L146.868 15.84H150.688L153.268 22.82L155.828 15.84H159.528Z" fill="#60A5FA"/>
</svg>
