<svg width="40" height="40" viewBox="0 0 40 40" fill="none" xmlns="http://www.w3.org/2000/svg">
<circle cx="20" cy="20" r="20" fill="#7DD3FC"/>
<path d="M31.3505 29.6551C30.9455 28.9151 31.463 28.1651 32.3455 27.2351C33.7455 25.7576 35.2705 22.3351 33.8555 18.8576C33.863 18.8376 33.5755 18.2526 33.5855 18.2326L33.0005 18.2026C32.813 18.1751 26.4105 18.1626 20.0005 18.1626C13.5905 18.1626 7.18798 18.1751 7.00048 18.2026C7.00048 18.2026 6.13798 18.8376 6.14548 18.8551C4.73048 22.3326 6.25548 25.7551 7.65548 27.2326C8.53798 28.1626 9.05548 28.9151 8.65048 29.6526C8.25798 30.3701 7.08548 30.4751 7.08548 30.4751C7.08548 30.4751 7.35548 31.2101 8.00798 31.6051C8.61048 31.9701 9.35048 32.0576 9.86298 32.0701C9.86298 32.0701 11.863 34.8376 17.093 34.8376H22.913C28.143 34.8376 30.143 32.0701 30.143 32.0701C30.6555 32.0576 31.3955 31.9726 31.998 31.6051C32.6505 31.2101 32.9205 30.4751 32.9205 30.4751C32.9205 30.4751 31.7455 30.3726 31.3505 29.6551Z" fill="#543930"/>
<path d="M19.9971 34.8402V31.7677L29.2921 31.0327L30.1371 32.0727C30.1371 32.0727 28.1371 34.8402 22.9071 34.8402H19.9971Z" fill="url(#paint0_radial_1557_521)"/>
<path d="M30.1147 30.7326C28.7222 28.6176 31.8097 27.8301 31.8097 27.8301L31.8122 27.8326C31.2747 28.5001 31.0322 29.0826 31.3472 29.6551C31.7397 30.3726 32.9122 30.4776 32.9122 30.4776C32.9122 30.4776 31.3172 31.8976 30.1147 30.7326Z" fill="url(#paint1_radial_1557_521)"/>
<path d="M33.8622 18.8551C35.2447 22.2226 33.7897 25.6901 32.4272 27.1526C32.2397 27.3526 31.4472 28.1326 31.2672 28.7526C31.2672 28.7526 28.1622 24.4251 27.2372 21.8801C27.0497 21.3676 26.8797 20.8376 26.8572 20.2926C26.8397 19.8826 26.9047 19.3951 27.1397 19.0476C27.4297 18.6201 33.6972 18.4951 33.6972 18.4951C33.6972 18.5001 33.8622 18.8551 33.8622 18.8551Z" fill="url(#paint2_radial_1557_521)"/>
<path d="M6.14524 18.8551C4.76524 22.2226 6.21774 25.6901 7.58024 27.1526C7.76774 27.3526 8.56024 28.1326 8.74024 28.7526C8.74024 28.7526 11.8452 24.4251 12.7702 21.8801C12.9577 21.3676 13.1277 20.8376 13.1502 20.2926C13.1677 19.8826 13.1027 19.3951 12.8677 19.0476C12.5777 18.6201 12.2402 18.7351 11.7502 18.7351C10.8127 18.7351 6.71274 18.4951 6.39524 18.4951C6.39524 18.5001 6.14524 18.8551 6.14524 18.8551Z" fill="url(#paint3_radial_1557_521)"/>
<path d="M20.0101 34.8402V31.7677L10.7151 31.0327L9.87012 32.0727C9.87012 32.0727 11.8701 34.8402 17.1001 34.8402H20.0101Z" fill="url(#paint4_radial_1557_521)"/>
<path d="M9.89223 30.7326C11.2847 28.6176 8.19723 27.8301 8.19723 27.8301L8.19473 27.8326C8.73223 28.5001 8.97473 29.0826 8.65973 29.6551C8.26723 30.3726 7.09473 30.4776 7.09473 30.4776C7.09473 30.4776 8.68973 31.8976 9.89223 30.7326Z" fill="url(#paint5_radial_1557_521)"/>
<path d="M28.8879 20.0923H11.1129C9.19543 20.0923 7.62793 21.7623 7.62793 23.8048C7.62793 25.8473 9.19543 27.5173 11.1129 27.5173H28.8904C30.8079 27.5173 32.3754 25.8473 32.3754 23.8048C32.3754 21.7623 30.8054 20.0923 28.8879 20.0923Z" fill="#E59600"/>
<path d="M20.0002 7.2876C14.3402 7.2876 9.09766 13.3401 9.09766 22.0526C9.09766 30.7176 14.5002 35.0001 20.0002 35.0001C25.5002 35.0001 30.9027 30.7176 30.9027 22.0526C30.9027 13.3426 25.6602 7.2876 20.0002 7.2876Z" fill="#FFCA28"/>
<path d="M21.2545 25.8224C21.2209 25.8086 21.1856 25.7994 21.1495 25.7949H18.8495C18.8145 25.7999 18.7795 25.8074 18.7445 25.8224C18.537 25.9074 18.422 26.1224 18.5195 26.3524C18.6195 26.5824 19.077 27.2274 19.9995 27.2274C20.922 27.2274 21.3795 26.5824 21.4795 26.3524C21.5795 26.1224 21.4645 25.9074 21.2545 25.8224Z" fill="#E59600"/>
<path d="M22.737 28.4275C21.702 29.0425 18.3045 29.0425 17.2695 28.4275C16.6745 28.0725 16.067 28.615 16.3145 29.155C16.557 29.685 18.4095 30.92 20.012 30.92C21.6145 30.92 23.442 29.6875 23.687 29.155C23.932 28.615 23.332 28.075 22.737 28.4275Z" fill="#795548"/>
<path d="M14.7245 24.4449C15.5971 24.4449 16.3045 23.7118 16.3045 22.8074C16.3045 21.9031 15.5971 21.1699 14.7245 21.1699C13.8519 21.1699 13.1445 21.9031 13.1445 22.8074C13.1445 23.7118 13.8519 24.4449 14.7245 24.4449Z" fill="#404040"/>
<path d="M25.2743 24.4449C26.1469 24.4449 26.8543 23.7118 26.8543 22.8074C26.8543 21.9031 26.1469 21.1699 25.2743 21.1699C24.4017 21.1699 23.6943 21.9031 23.6943 22.8074C23.6943 23.7118 24.4017 24.4449 25.2743 24.4449Z" fill="#404040"/>
<path d="M17.0724 19.8676C16.7724 19.4701 16.0749 18.8901 14.7249 18.8901C13.3749 18.8901 12.6774 19.4701 12.3774 19.8676C12.2449 20.0451 12.2774 20.2476 12.3699 20.3701C12.4549 20.4851 12.7074 20.5901 12.9874 20.4951C13.2674 20.4001 13.8124 20.1176 14.7249 20.1126C15.6374 20.1201 16.1849 20.4001 16.4624 20.4951C16.7399 20.5901 16.9949 20.4851 17.0799 20.3701C17.1724 20.2476 17.2049 20.0451 17.0724 19.8676ZM27.6249 19.8676C27.3249 19.4701 26.6274 18.8901 25.2774 18.8901C23.9274 18.8901 23.2299 19.4701 22.9299 19.8676C22.7974 20.0451 22.8299 20.2476 22.9224 20.3701C23.0074 20.4851 23.2599 20.5901 23.5399 20.4951C23.8199 20.4001 24.3649 20.1176 25.2774 20.1126C26.1899 20.1201 26.7374 20.4001 27.0149 20.4951C27.2949 20.5901 27.5474 20.4851 27.6324 20.3701C27.7224 20.2476 27.7574 20.0451 27.6249 19.8676Z" fill="#6D4C41"/>
<path d="M33.0348 11.8523C32.2398 10.6498 30.4623 9.0398 28.8648 8.9348C28.6098 7.3998 26.9648 6.0998 25.3748 5.5948C21.0723 4.2323 18.2698 5.7598 16.7673 6.5798C16.4548 6.7498 14.4348 7.8698 13.0223 7.0673C12.1373 6.5648 12.1548 5.2023 12.1548 5.2023C12.1548 5.2023 9.3823 6.2573 10.3298 9.2023C9.3773 9.2423 8.1273 9.6423 7.4673 10.9798C6.6798 12.5723 6.9598 13.9048 7.1873 14.5423C6.3673 15.2373 5.3373 16.7198 6.0448 18.6423C6.5773 20.0898 8.7023 20.7548 8.7023 20.7548C8.5523 23.3598 9.0373 24.9648 9.2948 25.6123C9.3398 25.7248 9.5023 25.7148 9.5298 25.5973C9.8498 24.3073 10.9498 19.8098 10.8398 19.0248C10.8398 19.0248 14.5298 18.2923 18.0498 15.7023C18.7673 15.1748 19.5423 14.7248 20.3673 14.3973C24.7873 12.6373 25.7123 15.6398 25.7123 15.6398C25.7123 15.6398 28.7748 15.0523 29.6998 19.3073C30.0473 20.9023 30.2823 23.4548 30.4798 25.2398C30.4948 25.3648 30.6648 25.3923 30.7148 25.2748C31.0248 24.5673 31.6423 23.1598 31.7898 21.7273C31.8423 21.2223 33.2023 20.5548 33.7848 18.3898C34.5698 15.4973 33.6073 12.7198 33.0348 11.8523Z" fill="#543930"/>
<path d="M31.7804 21.7373C31.8329 21.2323 33.1929 20.5648 33.7754 18.3998C33.8379 18.1698 33.8904 17.9348 33.9379 17.6998C34.4129 15.0673 33.5604 12.6523 33.0304 11.8523C32.2954 10.7423 30.7204 9.28477 29.2254 8.98727C29.0954 8.96977 28.9679 8.95477 28.8479 8.94727C28.8479 8.94727 28.9554 9.64477 28.6729 10.2023C28.3079 10.9248 27.5654 11.0948 27.5654 11.0948C31.4629 14.9923 31.1854 18.2523 31.7804 21.7373Z" fill="url(#paint6_radial_1557_521)"/>
<path d="M17.7076 6.08758C17.3526 6.26008 17.0376 6.43258 16.7651 6.58008C16.4526 6.75008 14.4326 7.87008 13.0201 7.06758C12.1501 6.57258 12.1501 5.25258 12.1526 5.20508C11.7526 5.71508 10.5426 9.36258 14.0801 9.60508C15.6051 9.71008 16.5476 8.38008 17.1026 7.25258C17.3051 6.84508 17.6226 6.24758 17.7076 6.08758Z" fill="url(#paint7_radial_1557_521)"/>
<path d="M24.9304 5.46272C27.3104 6.10772 28.4729 7.31772 28.8604 8.93772C28.9754 9.41272 29.1104 13.8427 20.6529 8.80772C17.5079 6.93522 18.3654 5.76272 18.7354 5.63022C20.1729 5.10772 22.2629 4.74022 24.9304 5.46272Z" fill="url(#paint8_radial_1557_521)"/>
<path d="M12.143 5.2052C12.138 5.2077 12.133 5.2102 12.123 5.2127H12.1205C11.818 5.3402 9.43797 6.4402 10.328 9.1977L12.8605 9.6052C10.6205 7.3377 12.153 5.2002 12.153 5.2002L12.143 5.2052Z" fill="url(#paint9_radial_1557_521)"/>
<path d="M11.8927 9.4527L10.3277 9.2002C10.2677 9.2002 10.0577 9.2202 9.94524 9.2352C9.06524 9.3577 8.02524 9.8127 7.46524 10.9802C6.86024 12.2352 6.87774 13.3127 7.04024 14.0327C7.08774 14.2752 7.18524 14.5452 7.18524 14.5452C7.18524 14.5452 7.96024 13.8102 9.80274 13.7627L11.8927 9.4527Z" fill="url(#paint10_radial_1557_521)"/>
<path d="M7.10955 14.6048C6.33955 15.2898 5.29956 16.8148 6.06706 18.7048C6.64456 20.1323 8.69955 20.7523 8.69955 20.7523C8.69955 20.7598 9.10956 20.8798 9.32206 20.8798L9.80205 13.7573C8.81705 13.7573 7.87205 14.0523 7.25955 14.4773C7.26455 14.4923 7.10705 14.5948 7.10955 14.6048Z" fill="url(#paint11_radial_1557_521)"/>
<defs>
<radialGradient id="paint0_radial_1557_521" cx="0" cy="0" r="1" gradientUnits="userSpaceOnUse" gradientTransform="translate(24.7428 30.404) scale(7.61725 3.74159)">
<stop offset="0.728" stop-color="#6D4C41" stop-opacity="0"/>
<stop offset="1" stop-color="#6D4C41"/>
</radialGradient>
<radialGradient id="paint1_radial_1557_521" cx="0" cy="0" r="1" gradientUnits="userSpaceOnUse" gradientTransform="translate(32.2454 29.2705) rotate(154.924) scale(2.25089 1.66984)">
<stop offset="0.663" stop-color="#6D4C41"/>
<stop offset="1" stop-color="#6D4C41" stop-opacity="0"/>
</radialGradient>
<radialGradient id="paint2_radial_1557_521" cx="0" cy="0" r="1" gradientUnits="userSpaceOnUse" gradientTransform="translate(26.412 22.9038) rotate(-94.2783) scale(9.88737 8.24048)">
<stop offset="0.725" stop-color="#6D4C41" stop-opacity="0"/>
<stop offset="1" stop-color="#6D4C41"/>
</radialGradient>
<radialGradient id="paint3_radial_1557_521" cx="0" cy="0" r="1" gradientUnits="userSpaceOnUse" gradientTransform="translate(13.5954 22.9036) rotate(-85.7217) scale(9.88737 8.24048)">
<stop offset="0.725" stop-color="#6D4C41" stop-opacity="0"/>
<stop offset="1" stop-color="#6D4C41"/>
</radialGradient>
<radialGradient id="paint4_radial_1557_521" cx="0" cy="0" r="1" gradientUnits="userSpaceOnUse" gradientTransform="translate(15.2641 30.404) rotate(180) scale(7.61725 3.74159)">
<stop offset="0.728" stop-color="#6D4C41" stop-opacity="0"/>
<stop offset="1" stop-color="#6D4C41"/>
</radialGradient>
<radialGradient id="paint5_radial_1557_521" cx="0" cy="0" r="1" gradientUnits="userSpaceOnUse" gradientTransform="translate(7.76151 29.2708) rotate(25.0761) scale(2.25089 1.66984)">
<stop offset="0.663" stop-color="#6D4C41"/>
<stop offset="1" stop-color="#6D4C41" stop-opacity="0"/>
</radialGradient>
<radialGradient id="paint6_radial_1557_521" cx="0" cy="0" r="1" gradientUnits="userSpaceOnUse" gradientTransform="translate(25.8609 17.6866) rotate(72.0851) scale(11.5896 8.59918)">
<stop offset="0.699" stop-color="#6D4C41" stop-opacity="0"/>
<stop offset="1" stop-color="#6D4C41"/>
</radialGradient>
<radialGradient id="paint7_radial_1557_521" cx="0" cy="0" r="1" gradientUnits="userSpaceOnUse" gradientTransform="translate(14.5618 5.05057) rotate(28.2026) scale(3.03881 3.60314)">
<stop offset="0.58" stop-color="#6D4C41"/>
<stop offset="1" stop-color="#6D4C41" stop-opacity="0"/>
</radialGradient>
<radialGradient id="paint8_radial_1557_521" cx="0" cy="0" r="1" gradientUnits="userSpaceOnUse" gradientTransform="translate(21.3535 10.5699) rotate(-157.19) scale(9.50392 5.34124)">
<stop offset="0.699" stop-color="#6D4C41" stop-opacity="0"/>
<stop offset="1" stop-color="#6D4C41"/>
</radialGradient>
<radialGradient id="paint9_radial_1557_521" cx="0" cy="0" r="1" gradientUnits="userSpaceOnUse" gradientTransform="translate(13.3422 7.82266) scale(2.78925 3.41209)">
<stop offset="0.702" stop-color="#6D4C41" stop-opacity="0"/>
<stop offset="1" stop-color="#6D4C41"/>
</radialGradient>
<radialGradient id="paint10_radial_1557_521" cx="0" cy="0" r="1" gradientUnits="userSpaceOnUse" gradientTransform="translate(12.9581 12.7461) rotate(-164.942) scale(5.23144 4.89568)">
<stop offset="0.66" stop-color="#6D4C41" stop-opacity="0"/>
<stop offset="1" stop-color="#6D4C41"/>
</radialGradient>
<radialGradient id="paint11_radial_1557_521" cx="0" cy="0" r="1" gradientUnits="userSpaceOnUse" gradientTransform="translate(11.7171 17.7971) rotate(7.83355) scale(5.49243 7.71776)">
<stop offset="0.598" stop-color="#6D4C41" stop-opacity="0"/>
<stop offset="1" stop-color="#6D4C41"/>
</radialGradient>
</defs>
</svg>
