<svg width="36" height="32" viewBox="0 0 36 32" fill="none" xmlns="http://www.w3.org/2000/svg">
<path d="M3.19126 3.19009C5.13473 1.24663 7.74158 0.109736 10.4887 0.00753816C13.2359 -0.0946601 15.92 0.845397 18.0027 2.63908C20.0832 0.848168 22.7637 -0.0911236 25.5076 0.00924878C28.2514 0.109621 30.8561 1.24225 32.8001 3.18038C34.7441 5.11852 35.884 7.71911 35.9916 10.4615C36.0992 13.204 35.1666 15.8858 33.3804 17.9702L20.3701 31.0185C19.7724 31.6162 18.9707 31.966 18.1258 31.9976C17.2809 32.0293 16.4553 31.7406 15.8145 31.1893L15.6302 31.0185L2.6216 17.9718C0.835853 15.8892 -0.0975418 13.2094 0.00807703 10.4685C0.113696 7.72763 1.25054 5.12928 3.19126 3.19009ZM5.56042 5.55658C4.18978 6.92661 3.39966 8.77168 3.35411 10.7087C3.30856 12.6457 4.01107 14.5258 5.31579 15.9587L5.56042 16.215L18.001 28.6504L26.8861 19.7672L20.9633 13.8468L19.1872 15.6221C18.7205 16.0888 18.1665 16.4591 17.5566 16.7117C16.9468 16.9644 16.2932 17.0945 15.633 17.0947C14.2998 17.095 13.021 16.5659 12.0781 15.6238C11.1351 14.6817 10.6052 13.4037 10.6049 12.071C10.6046 10.7384 11.1339 9.46018 12.0764 8.51762L15.5983 4.99719C14.1969 3.87883 12.4427 3.29624 10.6504 3.35394C8.85804 3.41164 7.14495 4.10587 5.81844 5.31206L5.56042 5.55658ZM19.7787 10.2946C20.0929 9.9806 20.519 9.80422 20.9633 9.80422C21.4075 9.80422 21.8336 9.9806 22.1478 10.2946L29.2553 17.3991L30.4415 16.215C31.8346 14.8235 32.6277 12.9423 32.6512 10.9738C32.6747 9.00533 31.9267 7.10579 30.5672 5.68144C29.2077 4.25709 27.3447 3.42099 25.3764 3.35196C23.4082 3.28293 21.4911 3.98645 20.035 5.31206L19.7787 5.55658L14.4472 10.8858C14.1568 11.1759 13.9831 11.5625 13.959 11.9722C13.9349 12.3819 14.0621 12.7861 14.3166 13.1082L14.4472 13.2556C14.7377 13.5457 15.1245 13.719 15.5344 13.7428C15.9443 13.7666 16.3486 13.6391 16.6706 13.3846L16.8164 13.2556L19.7787 10.2946Z" fill="white"/>
</svg>
