<svg width="28" height="32" viewBox="0 0 28 32" fill="none" xmlns="http://www.w3.org/2000/svg">
<path d="M22.2143 4.94676C20.9936 3.57784 20.3209 1.81983 20.3214 0H14.8036V21.7517C14.761 22.9288 14.2551 24.0437 13.3924 24.8617C12.5298 25.6797 11.3776 26.137 10.1786 26.1371C7.64286 26.1371 5.53571 24.1023 5.53571 21.5763C5.53571 18.5591 8.5 16.2962 11.5536 17.2259V11.6828C5.39286 10.8758 0 15.577 0 21.5763C0 27.4177 4.92857 31.575 10.1607 31.575C15.7679 31.575 20.3214 27.1019 20.3214 21.5763V10.5426C22.5589 12.121 25.2453 12.968 28 12.9633V7.54293C28 7.54293 24.6429 7.7008 22.2143 4.94676Z" fill="white"/>
</svg>
