<svg width="28" height="24" viewBox="0 0 28 24" fill="none" xmlns="http://www.w3.org/2000/svg">
<path d="M28 3.5412C26.9694 4.00137 25.8585 4.30378 24.7075 4.4484C25.8853 3.75156 26.7954 2.64714 27.2237 1.31921C26.1128 1.9766 24.8815 2.43678 23.5832 2.69973C22.5258 1.56902 21.0402 0.911621 19.3537 0.911621C16.2084 0.911621 13.6386 3.43602 13.6386 6.55206C13.6386 6.99909 13.6922 7.43297 13.7859 7.84056C9.02103 7.60389 4.7782 5.35561 1.95411 1.9503C1.45889 2.77862 1.17782 3.75156 1.17782 4.7771C1.17782 6.73613 2.18164 8.47165 3.73423 9.45775C2.78394 9.45775 1.90057 9.19479 1.12428 8.80035V8.8398C1.12428 11.5746 3.10516 13.8623 5.72849 14.3751C4.88625 14.6015 4.00204 14.633 3.14532 14.4671C3.50884 15.5879 4.2208 16.5687 5.18109 17.2714C6.14139 17.9742 7.30175 18.3637 8.49904 18.3852C6.46949 19.9635 3.95372 20.8166 1.3652 20.8044C0.910134 20.8044 0.455067 20.7781 0 20.7255C2.54302 22.3295 5.56788 23.263 8.80688 23.263C19.3537 23.263 25.1491 14.6643 25.1491 7.20946C25.1491 6.95965 25.1491 6.72299 25.1358 6.47318C26.26 5.6843 27.2237 4.68506 28 3.5412Z" fill="white"/>
</svg>
