<svg width="16" height="16" viewBox="0 0 16 16" fill="none" xmlns="http://www.w3.org/2000/svg">
<path d="M14.4 15.2C14.8244 15.2 15.2313 15.0315 15.5314 14.7314C15.8314 14.4314 16 14.0244 16 13.6001V9.69294C16 9.2686 15.8314 8.86164 15.5314 8.56159C15.2313 8.26153 14.8244 8.09297 14.4 8.09297H12.1793C12.1793 7.53138 12.2129 6.96819 12.2785 6.4066C12.3777 5.81141 12.5441 5.28182 12.7745 4.81942C13.0065 4.35543 13.304 3.99224 13.6688 3.72664C14.032 3.42905 14.4944 3.28025 15.0576 3.28025V0.800293C14.1312 0.800293 13.3216 0.99869 12.6257 1.39548C11.9357 1.78825 11.3425 2.33059 10.8897 2.98265C10.4352 3.70155 10.1002 4.48934 9.89771 5.31541C9.69369 6.22702 9.59385 7.15884 9.60011 8.09297V13.6001C9.60011 14.0244 9.76868 14.4314 10.0687 14.7314C10.3688 15.0315 10.7757 15.2 11.2001 15.2H14.4ZM4.80019 15.2C5.22453 15.2 5.63149 15.0315 5.93154 14.7314C6.2316 14.4314 6.40017 14.0244 6.40017 13.6001V9.69294C6.40017 9.2686 6.2316 8.86164 5.93154 8.56159C5.63149 8.26153 5.22453 8.09297 4.80019 8.09297H2.57943C2.57943 7.53138 2.61303 6.96819 2.67863 6.4066C2.77783 5.81141 2.94423 5.28182 3.17462 4.81942C3.40662 4.35543 3.70421 3.99224 4.06901 3.72664C4.4322 3.42905 4.89459 3.28025 5.45778 3.28025V0.800293C4.5314 0.800293 3.72181 0.99869 3.02582 1.39548C2.33589 1.78825 1.74271 2.33059 1.28985 2.98265C0.835343 3.70155 0.50034 4.48934 0.297872 5.31541C0.0938533 6.22702 -0.00598481 7.15884 0.00027724 8.09297V13.6001C0.00027724 14.0244 0.168845 14.4314 0.468898 14.7314C0.768951 15.0315 1.17591 15.2 1.60025 15.2H4.80019Z" fill="#60A5FA"/>
</svg>
