<svg width="27" height="34" viewBox="0 0 27 34" fill="none" xmlns="http://www.w3.org/2000/svg">
<path d="M10.9688 22.95H16.0312V18.7H20.25V13.6H16.0312V9.35H10.9688V13.6H6.75V18.7H10.9688V22.95ZM13.5 34C9.59063 33.0083 6.363 30.7485 3.81713 27.2204C1.27125 23.6923 -0.00112425 19.7755 7.45362e-07 15.47V5.1L13.5 0L27 5.1V15.47C27 19.7767 25.7271 23.694 23.1812 27.2221C20.6353 30.7502 17.4082 33.0095 13.5 34ZM13.5 30.43C16.425 29.495 18.8437 27.625 20.7562 24.82C22.6687 22.015 23.625 18.8983 23.625 15.47V7.4375L13.5 3.6125L3.375 7.4375V15.47C3.375 18.8983 4.33125 22.015 6.24375 24.82C8.15625 27.625 10.575 29.495 13.5 30.43Z" fill="white"/>
</svg>
