<svg width="33" height="28" viewBox="0 0 33 28" fill="none" xmlns="http://www.w3.org/2000/svg">
<path d="M16.24 0C15.6313 -9.12647e-09 15.0285 0.120634 14.4661 0.355015C13.9037 0.589396 13.3927 0.932933 12.9623 1.36601C12.5319 1.79909 12.1904 2.31323 11.9575 2.87908C11.7245 3.44492 11.6046 4.05139 11.6046 4.66386C11.6046 5.27633 11.7245 5.8828 11.9575 6.44864C12.1904 7.01449 12.5319 7.52863 12.9623 7.96171C13.3927 8.39479 13.9037 8.73833 14.4661 8.97271C15.0285 9.20709 15.6313 9.32772 16.24 9.32772C17.4694 9.32772 18.6484 8.83635 19.5177 7.96171C20.387 7.08706 20.8754 5.90079 20.8754 4.66386C20.8754 3.42693 20.387 2.24066 19.5177 1.36601C18.6484 0.491369 17.4694 0 16.24 0ZM26.68 2.3296C25.757 2.3296 24.8719 2.69849 24.2193 3.35513C23.5666 4.01177 23.2 4.90236 23.2 5.83099C23.2 6.75962 23.5666 7.65022 24.2193 8.30685C24.8719 8.96349 25.757 9.33239 26.68 9.33239C27.603 9.33239 28.4881 8.96349 29.1407 8.30685C29.7934 7.65022 30.16 6.75962 30.16 5.83099C30.16 4.90236 29.7934 4.01177 29.1407 3.35513C28.4881 2.69849 27.603 2.3296 26.68 2.3296ZM5.8 2.3296C4.87705 2.3296 3.9919 2.69849 3.33927 3.35513C2.68664 4.01177 2.32 4.90236 2.32 5.83099C2.32 6.75962 2.68664 7.65022 3.33927 8.30685C3.9919 8.96349 4.87705 9.33239 5.8 9.33239C6.72295 9.33239 7.60811 8.96349 8.26073 8.30685C8.91336 7.65022 9.28 6.75962 9.28 5.83099C9.28 4.90236 8.91336 4.01177 8.26073 3.35513C7.60811 2.69849 6.72295 2.3296 5.8 2.3296ZM9.28 13.9846C9.28429 13.3683 9.53061 12.7788 9.96523 12.3446C10.3998 11.9103 10.9875 11.6666 11.6 11.6667H20.88C21.4953 11.6667 22.0854 11.9126 22.5205 12.3503C22.9556 12.7881 23.2 13.3818 23.2 14.0009V21.0037C23.1998 21.7384 23.0856 22.4685 22.8613 23.1676C22.3476 24.7518 21.2893 26.1 19.8766 26.9699C18.4639 27.8397 16.7893 28.1744 15.1534 27.9138C13.5175 27.6531 12.0275 26.8143 10.9511 25.5478C9.87457 24.2813 9.28209 22.6702 9.28 21.0037V13.9846ZM6.96 14.0009C6.96 13.1489 7.18504 12.3529 7.58176 11.6667H2.32C1.7047 11.6667 1.1146 11.9126 0.679513 12.3503C0.244428 12.7881 3.21119e-07 13.3818 3.21119e-07 14.0009V19.8366C-0.000315631 20.792 0.232524 21.7329 0.678073 22.5766C1.12362 23.4204 1.76825 24.1411 2.55535 24.6756C3.34244 25.2101 4.24793 25.542 5.19229 25.6421C6.13665 25.7422 7.091 25.6075 7.97152 25.2497C7.30378 23.9346 6.95703 22.4782 6.96 21.0014V14.0009ZM25.52 14.0009V21.0037C25.52 22.5327 25.1558 23.9752 24.5085 25.2497C25.389 25.6075 26.3433 25.7422 27.2877 25.6421C28.2321 25.542 29.1376 25.2101 29.9247 24.6756C30.7118 24.1411 31.3564 23.4204 31.8019 22.5766C32.2475 21.7329 32.4803 20.792 32.48 19.8366V14.0009C32.48 13.3818 32.2356 12.7881 31.8005 12.3503C31.3654 11.9126 30.7753 11.6667 30.16 11.6667H24.8982C25.2926 12.3529 25.52 13.1489 25.52 14.0009Z" fill="white"/>
</svg>
