<svg width="16" height="18" viewBox="0 0 16 18" fill="none" xmlns="http://www.w3.org/2000/svg">
<path d="M0.341719 8.89921C0.341344 10.3107 0.695344 11.689 1.36847 12.9038L0.277344 17.0544L4.35434 15.9407C5.48199 16.5803 6.74543 16.9154 8.02934 16.9155H8.03272C12.2712 16.9155 15.7213 13.3222 15.7232 8.90553C15.724 6.76535 14.9247 4.75287 13.4726 3.23878C12.0207 1.72483 10.0898 0.890625 8.03241 0.889648C3.79347 0.889648 0.343531 4.48276 0.341781 8.89921" fill="url(#paint0_linear_1557_463)"/>
<path d="M0.066875 8.89647C0.0664375 10.3588 0.433125 11.7863 1.13025 13.0446L0 17.3441L4.22319 16.1904C5.38681 16.8514 6.69694 17.1999 8.03006 17.2004H8.0335C12.424 17.2004 15.9981 13.4779 16 8.90311C16.0007 6.68603 15.1727 4.6012 13.6687 3.03287C12.1646 1.46474 10.1646 0.600521 8.0335 0.599609C3.64225 0.599609 0.068625 4.32166 0.066875 8.89647ZM2.58188 12.8279L2.42419 12.5671C1.76131 11.469 1.41144 10.2 1.41194 8.89699C1.41338 5.09452 4.38363 2.00091 8.036 2.00091C9.80475 2.00169 11.467 2.72006 12.7172 4.02342C13.9674 5.32692 14.6554 7.05967 14.6549 8.90259C14.6533 12.7051 11.683 15.7991 8.0335 15.7991H8.03088C6.84256 15.7984 5.67712 15.4659 4.66075 14.8376L4.41888 14.6882L1.91275 15.3727L2.58188 12.8279V12.8279Z" fill="url(#paint1_linear_1557_463)"/>
<path d="M6.04223 5.42761C5.8931 5.0823 5.73616 5.07533 5.59435 5.06928C5.47823 5.06407 5.34548 5.06446 5.21285 5.06446C5.0801 5.06446 4.86441 5.11649 4.6821 5.32388C4.4996 5.53147 3.98535 6.03313 3.98535 7.05344C3.98535 8.07381 4.69866 9.05986 4.7981 9.19837C4.89766 9.33661 6.17516 11.4974 8.19841 12.3287C9.87991 13.0195 10.2221 12.8821 10.587 12.8475C10.952 12.813 11.7648 12.346 11.9306 11.8617C12.0965 11.3775 12.0965 10.9624 12.0468 10.8757C11.997 10.7893 11.8643 10.7374 11.6652 10.6337C11.4661 10.53 10.4875 10.0283 10.305 9.95906C10.1225 9.8899 9.98985 9.85539 9.8571 10.063C9.72435 10.2704 9.34316 10.7374 9.22698 10.8757C9.11091 11.0143 8.99473 11.0316 8.79573 10.9279C8.59654 10.8238 7.95548 10.6051 7.19491 9.89863C6.60316 9.34892 6.20366 8.67008 6.08754 8.46242C5.97141 8.25509 6.0751 8.1427 6.17491 8.03936C6.26435 7.94644 6.37404 7.79719 6.47366 7.67614C6.57291 7.55503 6.60604 7.46862 6.67241 7.33031C6.73885 7.19187 6.7056 7.07076 6.65591 6.96703C6.60604 6.8633 6.21923 5.83765 6.04223 5.42761Z" fill="white"/>
<defs>
<linearGradient id="paint0_linear_1557_463" x1="772.568" y1="1617.37" x2="772.568" y2="0.889648" gradientUnits="userSpaceOnUse">
<stop stop-color="#1FAF38"/>
<stop offset="1" stop-color="#60D669"/>
</linearGradient>
<linearGradient id="paint1_linear_1557_463" x1="800" y1="1675.05" x2="800" y2="0.599609" gradientUnits="userSpaceOnUse">
<stop stop-color="#F9F9F9"/>
<stop offset="1" stop-color="white"/>
</linearGradient>
</defs>
</svg>
